<svg width="1280" height="720" viewBox="0 0 1280 720" fill="none" xmlns="http://www.w3.org/2000/svg">
<g clip-path="url(#clip0_606_27)">
<mask id="path-1-outside-1_606_27" maskUnits="userSpaceOnUse" x="-127.14" y="57.5" width="653" height="177" fill="black">
<rect fill="white" x="-127.14" y="57.5" width="653" height="177"/>
<path fill-rule="evenodd" clip-rule="evenodd" d="M499.449 193.093C500.689 191.615 500.496 189.415 499.017 188.176C420.26 122.212 318.768 82.5 208 82.5C89.0846 82.5 -19.1407 128.269 -100.021 203.153C-101.437 204.464 -101.521 206.671 -100.209 208.085V208.085C-98.8842 209.511 -96.6543 209.575 -95.2258 208.253C-15.5984 134.548 90.9401 89.5 208 89.5C317.037 89.5 416.946 128.585 494.481 193.508C495.973 194.758 498.197 194.583 499.449 193.093V193.093Z"/>
</mask>
<path fill-rule="evenodd" clip-rule="evenodd" d="M499.449 193.093C500.689 191.615 500.496 189.415 499.017 188.176C420.26 122.212 318.768 82.5 208 82.5C89.0846 82.5 -19.1407 128.269 -100.021 203.153C-101.437 204.464 -101.521 206.671 -100.209 208.085V208.085C-98.8842 209.511 -96.6543 209.575 -95.2258 208.253C-15.5984 134.548 90.9401 89.5 208 89.5C317.037 89.5 416.946 128.585 494.481 193.508C495.973 194.758 498.197 194.583 499.449 193.093V193.093Z" fill="black"/>
<path d="M494.481 193.508L478.43 212.676L494.481 193.508ZM-95.2258 208.253L-112.208 189.906L-95.2258 208.253ZM-100.021 203.153L-83.0364 221.497L-100.021 203.153ZM499.017 188.176L482.964 207.342L499.017 188.176ZM208 107.5C312.683 107.5 408.54 145.006 482.964 207.342L515.069 169.011C431.981 99.4184 324.853 57.5 208 57.5V107.5ZM-83.0364 221.497C-6.5948 150.723 95.6268 107.5 208 107.5V57.5C82.5425 57.5 -31.6867 105.815 -117.005 184.808L-83.0364 221.497ZM208 64.5C84.3991 64.5 -28.1423 112.092 -112.208 189.906L-78.2436 226.6C-3.05456 157.003 97.4811 114.5 208 114.5V64.5ZM510.531 174.34C428.664 105.79 323.121 64.5 208 64.5V114.5C310.953 114.5 405.228 151.379 478.43 212.676L510.531 174.34ZM478.43 212.676C490.291 222.607 508.298 221.429 518.593 209.171L480.304 177.015C488.096 167.738 501.655 166.909 510.531 174.34L478.43 212.676ZM-118.53 225.094C-107.638 236.826 -89.5954 237.107 -78.2436 226.6L-112.208 189.906C-103.713 182.043 -90.13 182.197 -81.887 191.075L-118.53 225.094ZM-117.005 184.808C-128.552 195.498 -129.256 213.541 -118.53 225.094L-81.887 191.075C-73.7867 199.8 -74.3215 213.429 -83.0364 221.497L-117.005 184.808ZM482.964 207.342C473.857 199.714 472.65 186.129 480.304 177.015L518.593 209.171C528.729 197.101 527.134 179.116 515.069 169.011L482.964 207.342Z" fill="#FFC700" mask="url(#path-1-outside-1_606_27)"/>
<circle cx="498.5" cy="190.5" r="10" fill="white" stroke="black" stroke-width="5"/>
</g>
<defs>
<clipPath id="clip0_606_27">
<rect width="1280" height="720" fill="white"/>
</clipPath>
</defs>
</svg>
