<svg width="58" height="65" viewBox="0 0 58 65" fill="none" xmlns="http://www.w3.org/2000/svg">
<mask id="path-1-inside-1_621_35" fill="white">
<path fill-rule="evenodd" clip-rule="evenodd" d="M6.74955 1.40366C3.63931 -0.545203 -0.234079 2.37362 0.781991 5.90055L16.7477 61.32C17.5239 64.0143 20.7594 65.0947 22.9987 63.4072L23.5848 62.9655L27.6153 38.5016C27.8757 36.9212 29.3316 35.8241 30.9226 36.0094L55.5498 38.8782L55.9048 38.6107C58.1441 36.9233 57.9974 33.5154 55.6214 32.0266L6.74955 1.40366Z"/>
</mask>
<path fill-rule="evenodd" clip-rule="evenodd" d="M6.74955 1.40366C3.63931 -0.545203 -0.234079 2.37362 0.781991 5.90055L16.7477 61.32C17.5239 64.0143 20.7594 65.0947 22.9987 63.4072L23.5848 62.9655L27.6153 38.5016C27.8757 36.9212 29.3316 35.8241 30.9226 36.0094L55.5498 38.8782L55.9048 38.6107C58.1441 36.9233 57.9974 33.5154 55.6214 32.0266L6.74955 1.40366Z" fill="#FF8577"/>
<path d="M0.781991 5.90055L-4.0226 7.2847L0.781991 5.90055ZM6.74955 1.40366L4.09469 5.64061L4.09469 5.64061L6.74955 1.40366ZM16.7477 61.32L11.9431 62.7042L11.9431 62.7042L16.7477 61.32ZM22.9987 63.4072L26.0077 67.4004L26.0077 67.4004L22.9987 63.4072ZM23.5848 62.9655L26.5939 66.9587C27.6203 66.1853 28.3094 65.0464 28.5183 63.7783L23.5848 62.9655ZM27.6153 38.5016L22.6819 37.6888L22.6819 37.6888L27.6153 38.5016ZM30.9226 36.0094L31.5011 31.043L31.5011 31.043L30.9226 36.0094ZM55.5498 38.8782L54.9712 43.8446C56.2477 43.9933 57.5325 43.6448 58.5588 42.8714L55.5498 38.8782ZM55.9048 38.6107L58.9138 42.6039L58.9139 42.6039L55.9048 38.6107ZM55.6214 32.0266L58.2763 27.7896L58.2763 27.7896L55.6214 32.0266ZM5.58659 4.5164C5.6282 4.66085 5.63637 4.89991 5.54724 5.14496C5.46877 5.36072 5.34452 5.50366 5.22748 5.59186C5.11045 5.68005 4.9388 5.76008 4.70976 5.77605C4.44963 5.79418 4.22208 5.72043 4.09469 5.64061L9.40441 -2.83329C2.40636 -7.21824 -6.30876 -0.650879 -4.0226 7.2847L5.58659 4.5164ZM21.5523 59.9359L5.58659 4.5164L-4.0226 7.2847L11.9431 62.7042L21.5523 59.9359ZM19.9896 59.4141C20.5494 58.9922 21.3583 59.2623 21.5523 59.9359L11.9431 62.7042C13.6896 68.7664 20.9693 71.1971 26.0077 67.4004L19.9896 59.4141ZM20.5757 58.9724L19.9896 59.4141L26.0077 67.4004L26.5939 66.9587L20.5757 58.9724ZM28.5183 63.7783L32.5488 39.3144L22.6819 37.6888L18.6513 62.1527L28.5183 63.7783ZM32.5488 39.3144C32.3753 40.368 31.4047 41.0994 30.344 40.9759L31.5011 31.043C27.2586 30.5488 23.3762 33.4745 22.6819 37.6888L32.5488 39.3144ZM30.344 40.9759L54.9712 43.8446L56.1283 33.9118L31.5011 31.043L30.344 40.9759ZM52.8957 34.6175L52.5407 34.885L58.5588 42.8714L58.9138 42.6039L52.8957 34.6175ZM52.9665 36.2635C52.3726 35.8914 52.3359 35.0394 52.8957 34.6175L58.9139 42.6039C63.9523 38.8072 63.6222 31.1394 58.2763 27.7896L52.9665 36.2635ZM4.09469 5.64061L52.9665 36.2635L58.2763 27.7896L9.40441 -2.83329L4.09469 5.64061Z" fill="black" mask="url(#path-1-inside-1_621_35)"/>
</svg>
